<mxfile host="Electron" agent="Mozilla/5.0 (Windows NT 10.0; Win64; x64) AppleWebKit/537.36 (KHTML, like Gecko) draw.io/24.7.8 Chrome/128.0.6613.36 Electron/32.0.1 Safari/537.36" version="24.7.8" pages="6">
  <diagram name="High Level Overview" id="C5kzisnh29MFRdu8TyDH">
    <mxGraphModel dx="1206" dy="720" grid="1" gridSize="9" guides="1" tooltips="1" connect="1" arrows="1" fold="1" page="1" pageScale="1" pageWidth="1654" pageHeight="1169" math="0" shadow="0">
      <root>
        <mxCell id="8vWT-05ZdjadTh8CEOkU-0" />
        <mxCell id="8vWT-05ZdjadTh8CEOkU-1" parent="8vWT-05ZdjadTh8CEOkU-0" />
        <mxCell id="WOgebxlKafKzdkZJwtDt-9" style="edgeStyle=orthogonalEdgeStyle;rounded=0;orthogonalLoop=1;jettySize=auto;html=1;exitX=0.5;exitY=0;exitDx=0;exitDy=0;entryX=0.5;entryY=1;entryDx=0;entryDy=0;" parent="8vWT-05ZdjadTh8CEOkU-1" source="8vWT-05ZdjadTh8CEOkU-23" target="WOgebxlKafKzdkZJwtDt-8" edge="1">
          <mxGeometry relative="1" as="geometry" />
        </mxCell>
        <mxCell id="WOgebxlKafKzdkZJwtDt-10" style="edgeStyle=orthogonalEdgeStyle;rounded=0;orthogonalLoop=1;jettySize=auto;html=1;exitX=0.5;exitY=0;exitDx=0;exitDy=0;entryX=0.5;entryY=1;entryDx=0;entryDy=0;" parent="8vWT-05ZdjadTh8CEOkU-1" source="8vWT-05ZdjadTh8CEOkU-23" target="WOgebxlKafKzdkZJwtDt-5" edge="1">
          <mxGeometry relative="1" as="geometry" />
        </mxCell>
        <mxCell id="WOgebxlKafKzdkZJwtDt-20" style="edgeStyle=orthogonalEdgeStyle;rounded=0;orthogonalLoop=1;jettySize=auto;html=1;exitX=0.5;exitY=1;exitDx=0;exitDy=0;entryX=0;entryY=0.5;entryDx=0;entryDy=0;" parent="8vWT-05ZdjadTh8CEOkU-1" source="8vWT-05ZdjadTh8CEOkU-23" target="WOgebxlKafKzdkZJwtDt-13" edge="1">
          <mxGeometry relative="1" as="geometry" />
        </mxCell>
        <mxCell id="8vWT-05ZdjadTh8CEOkU-23" value="Bulkhead Connector" style="rhombus;whiteSpace=wrap;html=1;fontSize=9;" parent="8vWT-05ZdjadTh8CEOkU-1" vertex="1">
          <mxGeometry x="909" y="702" width="72" height="72" as="geometry" />
        </mxCell>
        <mxCell id="WOgebxlKafKzdkZJwtDt-1" value="&lt;font size=&quot;1&quot;&gt;Chassis&lt;/font&gt;&lt;div&gt;&lt;font size=&quot;1&quot;&gt;Wiring&lt;/font&gt;&lt;/div&gt;" style="rounded=1;whiteSpace=wrap;html=1;" parent="8vWT-05ZdjadTh8CEOkU-1" vertex="1">
          <mxGeometry x="1107" y="594" width="72" height="72" as="geometry" />
        </mxCell>
        <mxCell id="WOgebxlKafKzdkZJwtDt-5" value="&lt;font size=&quot;1&quot;&gt;Body&lt;/font&gt;&lt;div&gt;&lt;font size=&quot;1&quot;&gt;Wiring&lt;/font&gt;&lt;/div&gt;" style="rounded=1;whiteSpace=wrap;html=1;" parent="8vWT-05ZdjadTh8CEOkU-1" vertex="1">
          <mxGeometry x="954" y="594" width="72" height="72" as="geometry" />
        </mxCell>
        <mxCell id="WOgebxlKafKzdkZJwtDt-11" style="edgeStyle=orthogonalEdgeStyle;rounded=0;orthogonalLoop=1;jettySize=auto;html=1;exitX=0.5;exitY=0;exitDx=0;exitDy=0;entryX=0.5;entryY=1;entryDx=0;entryDy=0;" parent="8vWT-05ZdjadTh8CEOkU-1" source="WOgebxlKafKzdkZJwtDt-7" target="WOgebxlKafKzdkZJwtDt-1" edge="1">
          <mxGeometry relative="1" as="geometry" />
        </mxCell>
        <mxCell id="WOgebxlKafKzdkZJwtDt-7" value="&lt;font size=&quot;1&quot;&gt;Transmission&lt;/font&gt;&lt;div&gt;&lt;font size=&quot;1&quot;&gt;Wiring&lt;/font&gt;&lt;/div&gt;" style="rounded=1;whiteSpace=wrap;html=1;" parent="8vWT-05ZdjadTh8CEOkU-1" vertex="1">
          <mxGeometry x="1107" y="684" width="72" height="72" as="geometry" />
        </mxCell>
        <mxCell id="WOgebxlKafKzdkZJwtDt-8" value="&lt;font size=&quot;1&quot;&gt;Instrument&lt;/font&gt;&lt;div&gt;&lt;font size=&quot;1&quot;&gt;Panel&lt;/font&gt;&lt;/div&gt;&lt;div&gt;&lt;font size=&quot;1&quot;&gt;Wiring&lt;/font&gt;&lt;/div&gt;" style="rounded=1;whiteSpace=wrap;html=1;" parent="8vWT-05ZdjadTh8CEOkU-1" vertex="1">
          <mxGeometry x="864" y="594" width="72" height="72" as="geometry" />
        </mxCell>
        <mxCell id="WOgebxlKafKzdkZJwtDt-18" style="edgeStyle=orthogonalEdgeStyle;rounded=0;orthogonalLoop=1;jettySize=auto;html=1;exitX=0.5;exitY=0;exitDx=0;exitDy=0;entryX=0.5;entryY=1;entryDx=0;entryDy=0;" parent="8vWT-05ZdjadTh8CEOkU-1" source="WOgebxlKafKzdkZJwtDt-12" target="WOgebxlKafKzdkZJwtDt-7" edge="1">
          <mxGeometry relative="1" as="geometry" />
        </mxCell>
        <mxCell id="WOgebxlKafKzdkZJwtDt-12" value="&lt;font size=&quot;1&quot;&gt;Engine&lt;/font&gt;&lt;div&gt;&lt;font size=&quot;1&quot;&gt;Wiring&lt;/font&gt;&lt;/div&gt;" style="rounded=1;whiteSpace=wrap;html=1;" parent="8vWT-05ZdjadTh8CEOkU-1" vertex="1">
          <mxGeometry x="1107" y="774" width="72" height="72" as="geometry" />
        </mxCell>
        <mxCell id="WOgebxlKafKzdkZJwtDt-13" value="&lt;font size=&quot;1&quot;&gt;Front End&lt;/font&gt;&lt;div&gt;&lt;font size=&quot;1&quot;&gt;Wiring&lt;/font&gt;&lt;/div&gt;" style="rounded=1;whiteSpace=wrap;html=1;" parent="8vWT-05ZdjadTh8CEOkU-1" vertex="1">
          <mxGeometry x="1107" y="891" width="72" height="72" as="geometry" />
        </mxCell>
        <mxCell id="WOgebxlKafKzdkZJwtDt-22" style="edgeStyle=orthogonalEdgeStyle;shape=link;rounded=0;orthogonalLoop=1;jettySize=auto;html=1;exitX=1;exitY=0.25;exitDx=0;exitDy=0;entryX=0.5;entryY=0;entryDx=0;entryDy=0;strokeWidth=3;strokeColor=#FF3333;" parent="8vWT-05ZdjadTh8CEOkU-1" source="WOgebxlKafKzdkZJwtDt-14" target="WOgebxlKafKzdkZJwtDt-16" edge="1">
          <mxGeometry relative="1" as="geometry" />
        </mxCell>
        <mxCell id="WOgebxlKafKzdkZJwtDt-24" style="edgeStyle=orthogonalEdgeStyle;shape=link;rounded=0;orthogonalLoop=1;jettySize=auto;html=1;exitX=1;exitY=0.25;exitDx=0;exitDy=0;entryX=0;entryY=0.5;entryDx=0;entryDy=0;strokeColor=#FF3333;strokeWidth=3;" parent="8vWT-05ZdjadTh8CEOkU-1" source="WOgebxlKafKzdkZJwtDt-14" target="WOgebxlKafKzdkZJwtDt-19" edge="1">
          <mxGeometry relative="1" as="geometry">
            <Array as="points">
              <mxPoint x="666" y="459" />
              <mxPoint x="666" y="840" />
            </Array>
          </mxGeometry>
        </mxCell>
        <mxCell id="WOgebxlKafKzdkZJwtDt-25" style="edgeStyle=orthogonalEdgeStyle;rounded=0;orthogonalLoop=1;jettySize=auto;html=1;exitX=1;exitY=0.5;exitDx=0;exitDy=0;entryX=0.25;entryY=0;entryDx=0;entryDy=0;" parent="8vWT-05ZdjadTh8CEOkU-1" source="WOgebxlKafKzdkZJwtDt-14" target="WOgebxlKafKzdkZJwtDt-16" edge="1">
          <mxGeometry relative="1" as="geometry" />
        </mxCell>
        <mxCell id="WOgebxlKafKzdkZJwtDt-26" style="edgeStyle=orthogonalEdgeStyle;rounded=0;orthogonalLoop=1;jettySize=auto;html=1;exitX=1;exitY=0.75;exitDx=0;exitDy=0;entryX=0;entryY=0.5;entryDx=0;entryDy=0;" parent="8vWT-05ZdjadTh8CEOkU-1" source="WOgebxlKafKzdkZJwtDt-14" target="8vWT-05ZdjadTh8CEOkU-23" edge="1">
          <mxGeometry relative="1" as="geometry">
            <Array as="points">
              <mxPoint x="702" y="489" />
              <mxPoint x="702" y="738" />
            </Array>
          </mxGeometry>
        </mxCell>
        <mxCell id="WOgebxlKafKzdkZJwtDt-14" value="Power Distribution&lt;div&gt;Center&lt;/div&gt;" style="shape=process;whiteSpace=wrap;html=1;backgroundOutline=1;" parent="8vWT-05ZdjadTh8CEOkU-1" vertex="1">
          <mxGeometry x="504" y="444" width="120" height="60" as="geometry" />
        </mxCell>
        <mxCell id="WOgebxlKafKzdkZJwtDt-23" style="edgeStyle=orthogonalEdgeStyle;rounded=0;orthogonalLoop=1;jettySize=auto;html=1;exitX=1;exitY=0.75;exitDx=0;exitDy=0;entryX=0;entryY=0.75;entryDx=0;entryDy=0;" parent="8vWT-05ZdjadTh8CEOkU-1" source="WOgebxlKafKzdkZJwtDt-15" target="WOgebxlKafKzdkZJwtDt-19" edge="1">
          <mxGeometry relative="1" as="geometry">
            <Array as="points">
              <mxPoint x="648" y="567" />
              <mxPoint x="648" y="855" />
            </Array>
          </mxGeometry>
        </mxCell>
        <mxCell id="WOgebxlKafKzdkZJwtDt-27" style="edgeStyle=orthogonalEdgeStyle;rounded=0;orthogonalLoop=1;jettySize=auto;html=1;exitX=1;exitY=0.5;exitDx=0;exitDy=0;entryX=0;entryY=0.75;entryDx=0;entryDy=0;" parent="8vWT-05ZdjadTh8CEOkU-1" source="WOgebxlKafKzdkZJwtDt-15" target="WOgebxlKafKzdkZJwtDt-12" edge="1">
          <mxGeometry relative="1" as="geometry">
            <Array as="points">
              <mxPoint x="684" y="552" />
              <mxPoint x="684" y="792" />
              <mxPoint x="882" y="792" />
              <mxPoint x="882" y="828" />
            </Array>
          </mxGeometry>
        </mxCell>
        <mxCell id="WOgebxlKafKzdkZJwtDt-15" value="Powertrain Control Module" style="shape=process;whiteSpace=wrap;html=1;backgroundOutline=1;" parent="8vWT-05ZdjadTh8CEOkU-1" vertex="1">
          <mxGeometry x="504" y="522" width="120" height="60" as="geometry" />
        </mxCell>
        <mxCell id="WOgebxlKafKzdkZJwtDt-16" value="Starter Motor" style="shape=process;whiteSpace=wrap;html=1;backgroundOutline=1;" parent="8vWT-05ZdjadTh8CEOkU-1" vertex="1">
          <mxGeometry x="726" y="594" width="120" height="60" as="geometry" />
        </mxCell>
        <mxCell id="WOgebxlKafKzdkZJwtDt-21" style="edgeStyle=orthogonalEdgeStyle;shape=link;rounded=0;orthogonalLoop=1;jettySize=auto;html=1;exitX=0;exitY=0.25;exitDx=0;exitDy=0;entryX=1;entryY=0.25;entryDx=0;entryDy=0;strokeColor=#FF3333;strokeWidth=3;" parent="8vWT-05ZdjadTh8CEOkU-1" source="WOgebxlKafKzdkZJwtDt-17" target="WOgebxlKafKzdkZJwtDt-14" edge="1">
          <mxGeometry relative="1" as="geometry" />
        </mxCell>
        <mxCell id="WOgebxlKafKzdkZJwtDt-17" value="Battery" style="shape=process;whiteSpace=wrap;html=1;backgroundOutline=1;" parent="8vWT-05ZdjadTh8CEOkU-1" vertex="1">
          <mxGeometry x="885" y="444" width="120" height="60" as="geometry" />
        </mxCell>
        <mxCell id="WOgebxlKafKzdkZJwtDt-19" value="Alternator" style="shape=process;whiteSpace=wrap;html=1;backgroundOutline=1;" parent="8vWT-05ZdjadTh8CEOkU-1" vertex="1">
          <mxGeometry x="726" y="810" width="120" height="60" as="geometry" />
        </mxCell>
      </root>
    </mxGraphModel>
  </diagram>
  <diagram id="64ZKHdIsO1lns8t2zCZ4" name="Harness Overview">
    <mxGraphModel dx="1146" dy="684" grid="1" gridSize="10" guides="1" tooltips="1" connect="1" arrows="1" fold="1" page="1" pageScale="1" pageWidth="1654" pageHeight="1169" math="0" shadow="0">
      <root>
        <object label="" wireColour="" wireGauge="" wireReferencePage="" id="0">
          <mxCell />
        </object>
        <mxCell id="1" parent="0" />
        <mxCell id="CAN7H_oQXloCrXY01u2r-1" value="Powetrain Control Module" style="shape=process;whiteSpace=wrap;html=1;backgroundOutline=1;" parent="1" vertex="1">
          <mxGeometry x="480" y="440" width="120" height="60" as="geometry" />
        </mxCell>
        <mxCell id="CAN7H_oQXloCrXY01u2r-2" value="Power Distribution Center" style="shape=process;whiteSpace=wrap;html=1;backgroundOutline=1;" parent="1" vertex="1">
          <mxGeometry x="480" y="560" width="120" height="60" as="geometry" />
        </mxCell>
        <mxCell id="RKwWMf0E_m2rZ5kWA3L7-1" value="ENG-2&lt;div&gt;Connector&lt;/div&gt;" style="shape=process;whiteSpace=wrap;html=1;backgroundOutline=1;" vertex="1" parent="1">
          <mxGeometry x="640" y="440" width="120" height="60" as="geometry" />
        </mxCell>
        <mxCell id="RKwWMf0E_m2rZ5kWA3L7-2" value="ENG-1&lt;div&gt;Connector&lt;/div&gt;" style="shape=process;whiteSpace=wrap;html=1;backgroundOutline=1;" vertex="1" parent="1">
          <mxGeometry x="480" y="680" width="120" height="60" as="geometry" />
        </mxCell>
        <mxCell id="RKwWMf0E_m2rZ5kWA3L7-3" value="Bulkhead&lt;div&gt;Connector&lt;/div&gt;" style="shape=process;whiteSpace=wrap;html=1;backgroundOutline=1;" vertex="1" parent="1">
          <mxGeometry x="290" y="440" width="120" height="60" as="geometry" />
        </mxCell>
      </root>
    </mxGraphModel>
  </diagram>
  <diagram id="sKl-zI64nSr9Xy-3_lr6" name="Engine Wiring 4.0L">
    <mxGraphModel dx="1348" dy="805" grid="1" gridSize="10" guides="1" tooltips="1" connect="1" arrows="1" fold="1" page="1" pageScale="1" pageWidth="1654" pageHeight="1169" math="0" shadow="0">
      <root>
        <mxCell id="0" />
        <mxCell id="1" parent="0" />
        <mxCell id="ocas2Hf4fDIv0QY5fJYW-5" value="Engine Wiring" style="rounded=1;whiteSpace=wrap;html=1;textDirection=ltr;labelPosition=center;verticalLabelPosition=top;align=center;verticalAlign=bottom;" vertex="1" parent="1">
          <mxGeometry x="463" y="399.5" width="370" height="490.5" as="geometry" />
        </mxCell>
        <mxCell id="ocas2Hf4fDIv0QY5fJYW-2" value="Intake Manifold" style="rounded=1;whiteSpace=wrap;html=1;fontSize=12;labelPosition=center;verticalLabelPosition=top;align=center;verticalAlign=bottom;" vertex="1" parent="1">
          <mxGeometry x="891" y="519.5" width="240" height="240" as="geometry" />
        </mxCell>
        <mxCell id="Ywj4dsraSfDH66rme3a0-2" value="Transmission Wiring" style="rounded=1;whiteSpace=wrap;html=1;textDirection=ltr;labelPosition=center;verticalLabelPosition=bottom;align=center;verticalAlign=top;" parent="1" vertex="1">
          <mxGeometry x="35.63" y="320" width="215.5" height="370" as="geometry" />
        </mxCell>
        <mxCell id="Ywj4dsraSfDH66rme3a0-1" value="Chassis Wiring" style="rounded=1;whiteSpace=wrap;html=1;labelPosition=center;verticalLabelPosition=bottom;align=center;verticalAlign=top;textDirection=ltr;" parent="1" vertex="1">
          <mxGeometry x="35.63" y="40" width="215.5" height="220" as="geometry" />
        </mxCell>
        <mxCell id="4FaVmFxr34noPARCt7ng-1" value="Alternator" style="rounded=1;whiteSpace=wrap;html=1;fontSize=9;" parent="1" vertex="1">
          <mxGeometry x="505" y="800" width="60" height="60" as="geometry" />
        </mxCell>
        <object label="Injector 1" wireColour="White/Dark Blue Tracer" wireGauge="18" wireReferencePage="YJ-20" id="4FaVmFxr34noPARCt7ng-2">
          <mxCell style="rounded=1;whiteSpace=wrap;html=1;fontSize=9;" parent="1" vertex="1">
            <mxGeometry x="623" y="739.5" width="60" height="20" as="geometry" />
          </mxCell>
        </object>
        <object label="Injector 2" wireColour="Tan" wireGauge="18" wireReferencePage="YJ-20" id="4FaVmFxr34noPARCt7ng-3">
          <mxCell style="rounded=1;whiteSpace=wrap;html=1;fontSize=9;" parent="1" vertex="1">
            <mxGeometry x="623" y="719.5" width="60" height="20" as="geometry" />
          </mxCell>
        </object>
        <object label="Injector 3" wireColour="Yellow/White Tracer" wireGauge="18" wireReferencePage="YJ-20" id="4FaVmFxr34noPARCt7ng-4">
          <mxCell style="rounded=1;whiteSpace=wrap;html=1;fontSize=9;" parent="1" vertex="1">
            <mxGeometry x="623" y="699.5" width="60" height="20" as="geometry" />
          </mxCell>
        </object>
        <object label="Injector 4" wireColour="Light Blue/Brown Tracer" wireGauge="18" wireReferencePage="YJ-20" id="4FaVmFxr34noPARCt7ng-5">
          <mxCell style="rounded=1;whiteSpace=wrap;html=1;fontSize=9;" parent="1" vertex="1">
            <mxGeometry x="623" y="679.5" width="60" height="20" as="geometry" />
          </mxCell>
        </object>
        <object label="Injector 5" wireColour="Pink/Black Tracer" wireGauge="18" wireReferencePage="YJ-20" id="4FaVmFxr34noPARCt7ng-6">
          <mxCell style="rounded=1;whiteSpace=wrap;html=1;fontSize=9;" parent="1" vertex="1">
            <mxGeometry x="623" y="659.5" width="60" height="20" as="geometry" />
          </mxCell>
        </object>
        <object label="Injector 6" wireColour="Light Green/Black Tracer" wireGauge="18" wireReferencePage="YJ-20" id="4FaVmFxr34noPARCt7ng-7">
          <mxCell style="rounded=1;whiteSpace=wrap;html=1;fontSize=9;" parent="1" vertex="1">
            <mxGeometry x="623" y="639.5" width="60" height="20" as="geometry" />
          </mxCell>
        </object>
        <object label="MAP&lt;div style=&quot;font-size: 9px;&quot;&gt;Sensor&lt;/div&gt;" wireColour="Dark Green/Red Tracer" wireGauge="18" wireReferencePage="YJ-21" id="4FaVmFxr34noPARCt7ng-8">
          <mxCell style="rounded=1;whiteSpace=wrap;html=1;fontSize=9;" parent="1" vertex="1">
            <mxGeometry x="623" y="500.5" width="60" height="60" as="geometry" />
          </mxCell>
        </object>
        <object label="Intake&lt;br style=&quot;font-size: 9px;&quot;&gt;Air Temp" wireColour="Black/Red Tracer" wireGauge="18" wireReferencePage="YJ-21" id="4FaVmFxr34noPARCt7ng-9">
          <mxCell style="rounded=1;whiteSpace=wrap;html=1;fontSize=9;" parent="1" vertex="1">
            <mxGeometry x="911" y="539.5" width="60" height="60" as="geometry" />
          </mxCell>
        </object>
        <object label="Engine&lt;div&gt;Coolant Temp (Gauge)&lt;/div&gt;" wireColour="Violet/Yellow Tracer" wireGauge="18" wireReferencePage="YJ-23" id="4FaVmFxr34noPARCt7ng-13">
          <mxCell style="rounded=1;whiteSpace=wrap;html=1;fontSize=9;" parent="1" vertex="1">
            <mxGeometry x="623" y="560.5" width="60" height="60" as="geometry" />
          </mxCell>
        </object>
        <object label="Engine&lt;div&gt;Coolant Temp (PCM)&lt;/div&gt;" wireColour="Tan/Black Tracer" wireGauge="18" wireReferencePage="YJ-21" id="4FaVmFxr34noPARCt7ng-14">
          <mxCell style="rounded=1;whiteSpace=wrap;html=1;fontSize=9;" parent="1" vertex="1">
            <mxGeometry x="623" y="800" width="60" height="60" as="geometry" />
          </mxCell>
        </object>
        <object label="O2 Sensor" wireColour="Black/Dark Green Tracer" wireGauge="18" wireReferencePage="YJ-17" id="4FaVmFxr34noPARCt7ng-15">
          <mxCell style="rounded=1;whiteSpace=wrap;html=1;fontSize=9;" parent="1" vertex="1">
            <mxGeometry x="743" y="800" width="60" height="60" as="geometry" />
          </mxCell>
        </object>
        <object label="Brake&lt;div&gt;Warning&lt;/div&gt;" wireColour="White/Black Tracer (+)&#xa;Gray/Black Tracer (To Cluster)" wireGauge="20" wireReferencePage="YJ-9" id="4FaVmFxr34noPARCt7ng-16">
          <mxCell style="rounded=1;whiteSpace=wrap;html=1;fontSize=9;" parent="1" vertex="1">
            <mxGeometry x="1131" y="459.5" width="60" height="60" as="geometry" />
          </mxCell>
        </object>
        <object label="Crankshaft Position" wireColour="Gray/Black Tracer" wireGauge="18" wireReferencePage="YJ-18" id="4FaVmFxr34noPARCt7ng-17">
          <mxCell style="rounded=1;whiteSpace=wrap;html=1;fontSize=9;" parent="1" vertex="1">
            <mxGeometry x="623" y="440.5" width="60" height="60" as="geometry" />
          </mxCell>
        </object>
        <mxCell id="R9wXLnEUtL8tIlTIn__i-1" value="&lt;font size=&quot;1&quot;&gt;Transmission Wiring&lt;/font&gt;" style="rounded=1;whiteSpace=wrap;html=1;fillColor=#d5e8d4;strokeColor=#82b366;" parent="1" vertex="1">
          <mxGeometry x="505" y="280" width="72" height="72" as="geometry" />
        </mxCell>
        <mxCell id="HcYQcsX7xOD_QK9B3Foe-1" value="&lt;font size=&quot;1&quot;&gt;Chassis&lt;/font&gt;&lt;div&gt;&lt;font size=&quot;1&quot;&gt;Wiring&lt;/font&gt;&lt;/div&gt;" style="rounded=1;whiteSpace=wrap;html=1;fillColor=#d5e8d4;strokeColor=#82b366;" parent="1" vertex="1">
          <mxGeometry x="139.88" y="343.5" width="72" height="72" as="geometry" />
        </mxCell>
        <mxCell id="HcYQcsX7xOD_QK9B3Foe-2" style="edgeStyle=orthogonalEdgeStyle;rounded=0;orthogonalLoop=1;jettySize=auto;html=1;exitX=0.5;exitY=0;exitDx=0;exitDy=0;entryX=0.5;entryY=1;entryDx=0;entryDy=0;strokeWidth=6;strokeColor=default;jumpStyle=none;endArrow=none;endFill=0;" parent="1" source="HcYQcsX7xOD_QK9B3Foe-5" target="HcYQcsX7xOD_QK9B3Foe-1" edge="1">
          <mxGeometry relative="1" as="geometry" />
        </mxCell>
        <mxCell id="HcYQcsX7xOD_QK9B3Foe-3" style="edgeStyle=orthogonalEdgeStyle;rounded=0;orthogonalLoop=1;jettySize=auto;html=1;exitX=0.5;exitY=0;exitDx=0;exitDy=0;entryX=1;entryY=0.5;entryDx=0;entryDy=0;" parent="1" source="HcYQcsX7xOD_QK9B3Foe-5" target="HcYQcsX7xOD_QK9B3Foe-6" edge="1">
          <mxGeometry relative="1" as="geometry" />
        </mxCell>
        <mxCell id="HcYQcsX7xOD_QK9B3Foe-4" style="edgeStyle=orthogonalEdgeStyle;rounded=0;orthogonalLoop=1;jettySize=auto;html=1;exitX=0.5;exitY=0;exitDx=0;exitDy=0;entryX=1;entryY=0.5;entryDx=0;entryDy=0;" parent="1" source="HcYQcsX7xOD_QK9B3Foe-5" target="HcYQcsX7xOD_QK9B3Foe-7" edge="1">
          <mxGeometry relative="1" as="geometry" />
        </mxCell>
        <mxCell id="HcYQcsX7xOD_QK9B3Foe-5" value="&lt;font size=&quot;1&quot;&gt;Engine&lt;/font&gt;&lt;div&gt;&lt;font size=&quot;1&quot;&gt;Wiring&lt;/font&gt;&lt;/div&gt;" style="rounded=1;whiteSpace=wrap;html=1;fillColor=#d5e8d4;strokeColor=#82b366;" parent="1" vertex="1">
          <mxGeometry x="139.88" y="599" width="72" height="72" as="geometry" />
        </mxCell>
        <object label="&lt;font size=&quot;1&quot;&gt;Reverse&lt;/font&gt;&lt;div&gt;&lt;font size=&quot;1&quot;&gt;Light&lt;/font&gt;&lt;/div&gt;&lt;div&gt;&lt;font size=&quot;1&quot;&gt;Switch&lt;/font&gt;&lt;/div&gt;" wireColour="Dark Blue/Yellow Tracer OR Violet" wireReferencePage="YJ-7" wireGauge="18" id="HcYQcsX7xOD_QK9B3Foe-6">
          <mxCell style="rounded=1;whiteSpace=wrap;html=1;" parent="1" vertex="1">
            <mxGeometry x="48.88" y="415.5" width="72" height="72" as="geometry" />
          </mxCell>
        </object>
        <object label="&lt;font size=&quot;1&quot;&gt;4WD&lt;/font&gt;&lt;div&gt;&lt;font size=&quot;1&quot;&gt;Indicator Switch&lt;/font&gt;&lt;/div&gt;" wireColour="Dark Green/Gray Tracer" wireGauge="18" wireReferencePage="YJ-8" id="HcYQcsX7xOD_QK9B3Foe-7">
          <mxCell style="rounded=1;whiteSpace=wrap;html=1;" parent="1" vertex="1">
            <mxGeometry x="48.88" y="525.5" width="72" height="72" as="geometry" />
          </mxCell>
        </object>
        <mxCell id="soBOxCE_AxDSQZdyEVib-1" style="edgeStyle=orthogonalEdgeStyle;rounded=0;orthogonalLoop=1;jettySize=auto;html=1;exitX=0.5;exitY=1;exitDx=0;exitDy=0;entryX=0.5;entryY=1;entryDx=0;entryDy=0;" parent="1" target="soBOxCE_AxDSQZdyEVib-4" edge="1">
          <mxGeometry relative="1" as="geometry">
            <mxPoint x="143.38" y="156" as="sourcePoint" />
            <Array as="points">
              <mxPoint x="92.38" y="156" />
            </Array>
          </mxGeometry>
        </mxCell>
        <mxCell id="soBOxCE_AxDSQZdyEVib-2" style="edgeStyle=orthogonalEdgeStyle;rounded=0;orthogonalLoop=1;jettySize=auto;html=1;exitX=0.5;exitY=0;exitDx=0;exitDy=0;entryX=0.5;entryY=1;entryDx=0;entryDy=0;endArrow=none;endFill=0;strokeWidth=5;" parent="1" source="soBOxCE_AxDSQZdyEVib-3" edge="1">
          <mxGeometry relative="1" as="geometry">
            <mxPoint x="143.38" y="156" as="targetPoint" />
          </mxGeometry>
        </mxCell>
        <mxCell id="soBOxCE_AxDSQZdyEVib-3" value="&lt;font size=&quot;1&quot;&gt;Transmission Wiring&lt;/font&gt;" style="rounded=1;whiteSpace=wrap;html=1;fillColor=#d5e8d4;strokeColor=#82b366;" parent="1" vertex="1">
          <mxGeometry x="107.38" y="174" width="72" height="72" as="geometry" />
        </mxCell>
        <object label="&lt;font size=&quot;1&quot;&gt;Fuel Tank Pump&lt;/font&gt;" wireGauge="16" wireColour="Dark Green/Black Tracer" wireReferencePage="YJ-55" id="soBOxCE_AxDSQZdyEVib-4">
          <mxCell style="rounded=1;whiteSpace=wrap;html=1;" parent="1" vertex="1">
            <mxGeometry x="56.38" y="60" width="72" height="72" as="geometry" />
          </mxCell>
        </object>
        <object label="&lt;font size=&quot;1&quot;&gt;Fuel Tank Sender&lt;/font&gt;" wireGauge="18" wireColour="Dark Blue" wireReferencePage="YJ-55" id="soBOxCE_AxDSQZdyEVib-5">
          <mxCell style="rounded=1;whiteSpace=wrap;html=1;" parent="1" vertex="1">
            <mxGeometry x="158.38" y="60" width="72" height="72" as="geometry" />
          </mxCell>
        </object>
        <mxCell id="soBOxCE_AxDSQZdyEVib-6" style="edgeStyle=orthogonalEdgeStyle;rounded=0;orthogonalLoop=1;jettySize=auto;html=1;entryX=0.5;entryY=1;entryDx=0;entryDy=0;" parent="1" target="soBOxCE_AxDSQZdyEVib-5" edge="1">
          <mxGeometry relative="1" as="geometry">
            <mxPoint x="143.38" y="156" as="sourcePoint" />
            <mxPoint x="102.38" y="142" as="targetPoint" />
            <Array as="points">
              <mxPoint x="153.38" y="156" />
              <mxPoint x="194.38" y="156" />
            </Array>
          </mxGeometry>
        </mxCell>
        <object label="Starter Motor&lt;div&gt;Signal&lt;/div&gt;" wireColour="Brown" wireGauge="14" wireReferencePage="YJ-7" id="gOtppqGfTkRFCw9Z6omt-1">
          <mxCell style="rounded=1;whiteSpace=wrap;html=1;fontSize=9;" parent="1" vertex="1">
            <mxGeometry x="505" y="439.5" width="60" height="60" as="geometry" />
          </mxCell>
        </object>
        <object label="Oil Pressure" wireColour="Gray/Yellow Tracer" wireGauge="18" wireReferenceColour="YJ-55" id="gOtppqGfTkRFCw9Z6omt-2">
          <mxCell style="rounded=1;whiteSpace=wrap;html=1;fontSize=9;" parent="1" vertex="1">
            <mxGeometry x="505" y="499.5" width="60" height="60" as="geometry" />
          </mxCell>
        </object>
        <object label="Ignition&lt;div&gt;Coil&lt;/div&gt;" wireColour="Gray" wireGauge="18" wireReferencePage="YJ-19" id="gOtppqGfTkRFCw9Z6omt-3">
          <mxCell style="rounded=1;whiteSpace=wrap;html=1;fontSize=9;" parent="1" vertex="1">
            <mxGeometry x="505" y="619.5" width="60" height="60" as="geometry" />
          </mxCell>
        </object>
        <object label="Distributor&lt;div&gt;Cam&lt;/div&gt;&lt;div&gt;Sensor&lt;/div&gt;" wireColour="Tan/Yellow Tracer (CMP)&#xa;Orange (MAG+)" wireGauge="18" wireReferencePage="YJ-18" id="ocas2Hf4fDIv0QY5fJYW-1">
          <mxCell style="rounded=1;whiteSpace=wrap;html=1;fontSize=9;" vertex="1" parent="1">
            <mxGeometry x="505" y="559.5" width="60" height="60" as="geometry" />
          </mxCell>
        </object>
        <mxCell id="ocas2Hf4fDIv0QY5fJYW-3" value="Throttle Body" style="rounded=1;whiteSpace=wrap;html=1;fontSize=12;labelPosition=center;verticalLabelPosition=top;align=center;verticalAlign=bottom;" vertex="1" parent="1">
          <mxGeometry x="971" y="599.5" width="140" height="140" as="geometry" />
        </mxCell>
        <object label="Idle Air&lt;div&gt;Control&lt;/div&gt;" wireColour="Violet/Black Tracer&#xa;Brown/White Tracer&#xa;Yellow/Black Tracer&#xa;Gray/Red Tracer" wireGauge="18" wireReferencePage="YJ-20" id="4FaVmFxr34noPARCt7ng-10">
          <mxCell style="rounded=1;whiteSpace=wrap;html=1;fontSize=9;" parent="1" vertex="1">
            <mxGeometry x="981" y="669" width="60" height="60" as="geometry" />
          </mxCell>
        </object>
        <object label="Throttle&lt;br&gt;Position" wireColour="Orange/Dark Blue Tracer" wireGauge="18" wireReferencePage="YJ-21" id="4FaVmFxr34noPARCt7ng-11">
          <mxCell style="rounded=1;whiteSpace=wrap;html=1;fontSize=9;" parent="1" vertex="1">
            <mxGeometry x="1041" y="609" width="60" height="60" as="geometry" />
          </mxCell>
        </object>
        <mxCell id="4FaVmFxr34noPARCt7ng-12" value="Intake&lt;div&gt;Port&lt;/div&gt;" style="ellipse;whiteSpace=wrap;html=1;fontSize=9;" parent="1" vertex="1">
          <mxGeometry x="1041" y="669" width="60" height="60" as="geometry" />
        </mxCell>
      </root>
    </mxGraphModel>
  </diagram>
  <diagram id="qHYmasmTEfmvkdkdz7J8" name="Front End Wiring">
    <mxGraphModel dx="2084" dy="1244" grid="1" gridSize="10" guides="1" tooltips="1" connect="1" arrows="1" fold="1" page="1" pageScale="1" pageWidth="1654" pageHeight="1169" math="0" shadow="0">
      <root>
        <mxCell id="0" />
        <mxCell id="1" parent="0" />
        <mxCell id="nbzJWB_aS6MK_Lr7zPss-1" value="Nearside Headlight" style="shape=hexagon;perimeter=hexagonPerimeter2;whiteSpace=wrap;html=1;fixedSize=1;fontSize=9;" vertex="1" parent="1">
          <mxGeometry x="970" y="980" width="108" height="36" as="geometry" />
        </mxCell>
        <mxCell id="nbzJWB_aS6MK_Lr7zPss-2" value="Offside Headlight" style="shape=hexagon;perimeter=hexagonPerimeter2;whiteSpace=wrap;html=1;fixedSize=1;fontSize=9;" vertex="1" parent="1">
          <mxGeometry x="600" y="980" width="108" height="36" as="geometry" />
        </mxCell>
        <mxCell id="nbzJWB_aS6MK_Lr7zPss-3" value="Nearside Leveler" style="shape=hexagon;perimeter=hexagonPerimeter2;whiteSpace=wrap;html=1;fixedSize=1;fontSize=9;" vertex="1" parent="1">
          <mxGeometry x="970" y="840" width="108" height="36" as="geometry" />
        </mxCell>
        <mxCell id="nbzJWB_aS6MK_Lr7zPss-4" value="Offside Leveler" style="shape=hexagon;perimeter=hexagonPerimeter2;whiteSpace=wrap;html=1;fixedSize=1;fontSize=9;" vertex="1" parent="1">
          <mxGeometry x="601" y="840" width="108" height="36" as="geometry" />
        </mxCell>
        <mxCell id="nbzJWB_aS6MK_Lr7zPss-5" value="Offside Park / Turn&lt;div&gt;Lamp&lt;/div&gt;" style="shape=hexagon;perimeter=hexagonPerimeter2;whiteSpace=wrap;html=1;fixedSize=1;fontSize=9;" vertex="1" parent="1">
          <mxGeometry x="600" y="920" width="108" height="36" as="geometry" />
        </mxCell>
        <mxCell id="nbzJWB_aS6MK_Lr7zPss-6" value="Nearside Park / Turn&lt;div&gt;Lamp&lt;/div&gt;" style="shape=hexagon;perimeter=hexagonPerimeter2;whiteSpace=wrap;html=1;fixedSize=1;fontSize=9;" vertex="1" parent="1">
          <mxGeometry x="970" y="920" width="108" height="36" as="geometry" />
        </mxCell>
        <mxCell id="lRwugKfM8lYBi18NTSvS-1" value="Horn" style="shape=hexagon;perimeter=hexagonPerimeter2;whiteSpace=wrap;html=1;fixedSize=1;fontSize=9;" vertex="1" parent="1">
          <mxGeometry x="602" y="645" width="108" height="36" as="geometry" />
        </mxCell>
        <mxCell id="lRwugKfM8lYBi18NTSvS-2" value="Washer Bottle Pumps" style="shape=hexagon;perimeter=hexagonPerimeter2;whiteSpace=wrap;html=1;fixedSize=1;fontSize=9;" vertex="1" parent="1">
          <mxGeometry x="602" y="600" width="108" height="36" as="geometry" />
        </mxCell>
        <mxCell id="G-0A76K4aho_rmFC6tUg-1" value="Bulkhead Connector" style="rhombus;whiteSpace=wrap;html=1;fontSize=9;" vertex="1" parent="1">
          <mxGeometry x="494" y="250" width="72" height="72" as="geometry" />
        </mxCell>
        <mxCell id="uUnbxnYEM3lBzozxSRxx-1" value="Offside Fog Light" style="shape=hexagon;perimeter=hexagonPerimeter2;whiteSpace=wrap;html=1;fixedSize=1;fontSize=9;" vertex="1" parent="1">
          <mxGeometry x="602" y="1040" width="108" height="36" as="geometry" />
        </mxCell>
        <mxCell id="uUnbxnYEM3lBzozxSRxx-2" value="Nearside Fog Light" style="shape=hexagon;perimeter=hexagonPerimeter2;whiteSpace=wrap;html=1;fixedSize=1;fontSize=9;" vertex="1" parent="1">
          <mxGeometry x="970" y="1040" width="108" height="36" as="geometry" />
        </mxCell>
        <mxCell id="F__C1dKxU1iqXYFNIwt2-1" value="Power Distribution&lt;div&gt;Center&lt;/div&gt;" style="shape=process;whiteSpace=wrap;html=1;backgroundOutline=1;" vertex="1" parent="1">
          <mxGeometry x="470" y="340" width="120" height="60" as="geometry" />
        </mxCell>
      </root>
    </mxGraphModel>
  </diagram>
  <diagram id="qj2w0sC6ZJbKOYrJAxmg" name="Body and Instrument Wiring">
    <mxGraphModel dx="1348" dy="805" grid="1" gridSize="10" guides="1" tooltips="1" connect="1" arrows="1" fold="1" page="1" pageScale="1" pageWidth="1654" pageHeight="1169" math="0" shadow="0">
      <root>
        <mxCell id="0" />
        <mxCell id="1" parent="0" />
        <object label="OS Tail&lt;div&gt;Lamp&lt;/div&gt;" wireColour="Brown" wireGauge="14" wireReferencePage="YJ-7" id="COaeH7S0cU0vi5TMEFP9-1">
          <mxCell style="rounded=1;whiteSpace=wrap;html=1;fontSize=9;" vertex="1" parent="1">
            <mxGeometry x="480" y="160" width="60" height="60" as="geometry" />
          </mxCell>
        </object>
        <object label="NS Tail&lt;div&gt;Lamp&lt;/div&gt;" wireColour="Brown" wireGauge="14" wireReferencePage="YJ-7" id="COaeH7S0cU0vi5TMEFP9-2">
          <mxCell style="rounded=1;whiteSpace=wrap;html=1;fontSize=9;" vertex="1" parent="1">
            <mxGeometry x="840" y="160" width="60" height="60" as="geometry" />
          </mxCell>
        </object>
        <object label="Licence Plate&lt;div&gt;Lamp&lt;/div&gt;" wireColour="Brown" wireGauge="14" wireReferencePage="YJ-7" id="COaeH7S0cU0vi5TMEFP9-3">
          <mxCell style="rounded=1;whiteSpace=wrap;html=1;fontSize=9;" vertex="1" parent="1">
            <mxGeometry x="600" y="160" width="60" height="60" as="geometry" />
          </mxCell>
        </object>
        <object label="Licence Plate&lt;div&gt;Lamp&lt;/div&gt;" wireColour="Brown" wireGauge="14" wireReferencePage="YJ-7" id="COaeH7S0cU0vi5TMEFP9-4">
          <mxCell style="rounded=1;whiteSpace=wrap;html=1;fontSize=9;" vertex="1" parent="1">
            <mxGeometry x="680" y="160" width="60" height="60" as="geometry" />
          </mxCell>
        </object>
        <object label="Fog Lamp" wireColour="Brown" wireGauge="14" wireReferencePage="YJ-7" id="COaeH7S0cU0vi5TMEFP9-5">
          <mxCell style="rounded=1;whiteSpace=wrap;html=1;fontSize=9;" vertex="1" parent="1">
            <mxGeometry x="360" y="160" width="60" height="60" as="geometry" />
          </mxCell>
        </object>
        <object label="Roof Harness&lt;div&gt;Connector&lt;/div&gt;" wireColour="Brown" wireGauge="14" wireReferencePage="YJ-7" id="COaeH7S0cU0vi5TMEFP9-6">
          <mxCell style="rounded=1;whiteSpace=wrap;html=1;fontSize=9;" vertex="1" parent="1">
            <mxGeometry x="760" y="240" width="60" height="60" as="geometry" />
          </mxCell>
        </object>
        <object label="NS Door&lt;div&gt;Switch&lt;/div&gt;" wireColour="Brown" wireGauge="14" wireReferencePage="YJ-7" id="COaeH7S0cU0vi5TMEFP9-7">
          <mxCell style="rounded=1;whiteSpace=wrap;html=1;fontSize=9;" vertex="1" parent="1">
            <mxGeometry x="760" y="480" width="60" height="60" as="geometry" />
          </mxCell>
        </object>
        <object label="Parking&lt;div&gt;Brake&lt;/div&gt;" wireColour="Brown" wireGauge="14" wireReferencePage="YJ-7" id="COaeH7S0cU0vi5TMEFP9-8">
          <mxCell style="rounded=1;whiteSpace=wrap;html=1;fontSize=9;" vertex="1" parent="1">
            <mxGeometry x="540" y="480" width="60" height="60" as="geometry" />
          </mxCell>
        </object>
        <object label="OS Door&lt;div&gt;Switch&lt;/div&gt;" wireColour="Brown" wireGauge="14" wireReferencePage="YJ-7" id="COaeH7S0cU0vi5TMEFP9-9">
          <mxCell style="rounded=1;whiteSpace=wrap;html=1;fontSize=9;" vertex="1" parent="1">
            <mxGeometry x="360" y="480" width="60" height="60" as="geometry" />
          </mxCell>
        </object>
        <object label="Steering&lt;div&gt;Column&lt;/div&gt;" wireColour="Brown" wireGauge="14" wireReferencePage="YJ-7" id="COaeH7S0cU0vi5TMEFP9-10">
          <mxCell style="rounded=1;whiteSpace=wrap;html=1;fontSize=9;" vertex="1" parent="1">
            <mxGeometry x="450" y="610" width="60" height="60" as="geometry" />
          </mxCell>
        </object>
        <object label="Blower Motor&lt;div&gt;Switch&lt;/div&gt;" wireColour="Brown" wireGauge="14" wireReferencePage="YJ-7" id="COaeH7S0cU0vi5TMEFP9-11">
          <mxCell style="rounded=1;whiteSpace=wrap;html=1;fontSize=9;" vertex="1" parent="1">
            <mxGeometry x="680" y="740" width="60" height="60" as="geometry" />
          </mxCell>
        </object>
        <object label="Heater Limit&lt;div&gt;Switch&lt;/div&gt;" wireColour="Brown" wireGauge="14" wireReferencePage="YJ-7" id="COaeH7S0cU0vi5TMEFP9-12">
          <mxCell style="rounded=1;whiteSpace=wrap;html=1;fontSize=9;" vertex="1" parent="1">
            <mxGeometry x="620" y="740" width="60" height="60" as="geometry" />
          </mxCell>
        </object>
        <object label="Illumination&lt;div&gt;Lamp&lt;/div&gt;" wireColour="Brown" wireGauge="14" wireReferencePage="YJ-7" id="COaeH7S0cU0vi5TMEFP9-13">
          <mxCell style="rounded=1;whiteSpace=wrap;html=1;fontSize=9;" vertex="1" parent="1">
            <mxGeometry x="560" y="740" width="60" height="60" as="geometry" />
          </mxCell>
        </object>
        <object label="NS Courtesy&lt;div&gt;Lamp&lt;/div&gt;" wireColour="Brown" wireGauge="14" wireReferencePage="YJ-7" id="COaeH7S0cU0vi5TMEFP9-14">
          <mxCell style="rounded=1;whiteSpace=wrap;html=1;fontSize=9;" vertex="1" parent="1">
            <mxGeometry x="760" y="540" width="60" height="60" as="geometry" />
          </mxCell>
        </object>
        <object label="OS Courtesy&lt;div&gt;Lamp&lt;/div&gt;" wireColour="Brown" wireGauge="14" wireReferencePage="YJ-7" id="COaeH7S0cU0vi5TMEFP9-15">
          <mxCell style="rounded=1;whiteSpace=wrap;html=1;fontSize=9;" vertex="1" parent="1">
            <mxGeometry x="360" y="540" width="60" height="60" as="geometry" />
          </mxCell>
        </object>
        <object label="Blower&lt;div&gt;Motor&lt;/div&gt;" wireColour="Brown" wireGauge="14" wireReferencePage="YJ-7" id="COaeH7S0cU0vi5TMEFP9-16">
          <mxCell style="rounded=1;whiteSpace=wrap;html=1;fontSize=9;" vertex="1" parent="1">
            <mxGeometry x="740" y="800" width="60" height="60" as="geometry" />
          </mxCell>
        </object>
        <object label="Blower&lt;div&gt;Resistor&lt;/div&gt;" wireColour="Brown" wireGauge="14" wireReferencePage="YJ-7" id="COaeH7S0cU0vi5TMEFP9-17">
          <mxCell style="rounded=1;whiteSpace=wrap;html=1;fontSize=9;" vertex="1" parent="1">
            <mxGeometry x="680" y="800" width="60" height="60" as="geometry" />
          </mxCell>
        </object>
        <object label="Gauge&lt;div&gt;Cluster&lt;/div&gt;" wireColour="Brown" wireGauge="14" wireReferencePage="YJ-7" id="COaeH7S0cU0vi5TMEFP9-18">
          <mxCell style="rounded=1;whiteSpace=wrap;html=1;fontSize=9;" vertex="1" parent="1">
            <mxGeometry x="550" y="940" width="60" height="60" as="geometry" />
          </mxCell>
        </object>
        <object label="Instrument&lt;div&gt;Panel&lt;/div&gt;" wireColour="Brown" wireGauge="14" wireReferencePage="YJ-7" id="COaeH7S0cU0vi5TMEFP9-19">
          <mxCell style="rounded=1;whiteSpace=wrap;html=1;fontSize=9;" vertex="1" parent="1">
            <mxGeometry x="380" y="940" width="60" height="60" as="geometry" />
          </mxCell>
        </object>
      </root>
    </mxGraphModel>
  </diagram>
  <diagram id="jDgEdTkDyRT_6eZpsnrP" name="Ground Locations">
    <mxGraphModel dx="1637" dy="977" grid="1" gridSize="10" guides="1" tooltips="1" connect="1" arrows="1" fold="1" page="1" pageScale="1" pageWidth="1654" pageHeight="1169" math="0" shadow="0">
      <root>
        <mxCell id="0" />
        <mxCell id="1" parent="0" />
        <mxCell id="uAP_DkmRmonAWhIrldk9-1" value="ENG-2&lt;div&gt;Connector&lt;/div&gt;" style="shape=process;whiteSpace=wrap;html=1;backgroundOutline=1;" parent="1" vertex="1">
          <mxGeometry x="707" y="440" width="120" height="60" as="geometry" />
        </mxCell>
        <mxCell id="hSCmPWtxroCCkHLQFnGJ-1" value="ENG-1&lt;div&gt;Connector&lt;/div&gt;" style="shape=process;whiteSpace=wrap;html=1;backgroundOutline=1;" parent="1" vertex="1">
          <mxGeometry x="600" y="720" width="120" height="60" as="geometry" />
        </mxCell>
        <mxCell id="hSCmPWtxroCCkHLQFnGJ-3" value="Battery" style="pointerEvents=1;verticalLabelPosition=bottom;shadow=0;dashed=0;align=center;html=1;verticalAlign=top;shape=mxgraph.electrical.miscellaneous.batteryStack;" parent="1" vertex="1">
          <mxGeometry x="1040" y="440" width="100" height="60" as="geometry" />
        </mxCell>
        <mxCell id="hSCmPWtxroCCkHLQFnGJ-6" style="edgeStyle=orthogonalEdgeStyle;rounded=0;orthogonalLoop=1;jettySize=auto;html=1;exitX=0.5;exitY=0;exitDx=0;exitDy=0;exitPerimeter=0;entryX=1;entryY=0.5;entryDx=0;entryDy=0;endArrow=none;endFill=0;" parent="1" source="hSCmPWtxroCCkHLQFnGJ-4" target="uAP_DkmRmonAWhIrldk9-1" edge="1">
          <mxGeometry relative="1" as="geometry" />
        </mxCell>
        <mxCell id="hSCmPWtxroCCkHLQFnGJ-4" value="" style="pointerEvents=1;verticalLabelPosition=bottom;shadow=0;dashed=0;align=center;html=1;verticalAlign=top;shape=mxgraph.electrical.signal_sources.signal_ground;rotation=-180;horizontal=1;textDirection=ltr;" parent="1" vertex="1">
          <mxGeometry x="900" y="330" width="45" height="30" as="geometry" />
        </mxCell>
        <mxCell id="hSCmPWtxroCCkHLQFnGJ-5" style="edgeStyle=orthogonalEdgeStyle;rounded=0;orthogonalLoop=1;jettySize=auto;html=1;exitX=0;exitY=0.5;exitDx=0;exitDy=0;entryX=0.5;entryY=0;entryDx=0;entryDy=0;entryPerimeter=0;endArrow=none;endFill=0;" parent="1" source="hSCmPWtxroCCkHLQFnGJ-3" target="hSCmPWtxroCCkHLQFnGJ-4" edge="1">
          <mxGeometry relative="1" as="geometry" />
        </mxCell>
        <mxCell id="hSCmPWtxroCCkHLQFnGJ-7" value="Bulkhead&lt;br style=&quot;font-size: 10px;&quot;&gt;&lt;ul style=&quot;font-size: 10px;&quot;&gt;&lt;li style=&quot;font-size: 10px;&quot;&gt;Battery (-)&lt;/li&gt;&lt;li style=&quot;font-size: 10px;&quot;&gt;&lt;span style=&quot;background-color: initial; font-size: 10px;&quot;&gt;Engine Grounding Strap&lt;/span&gt;&lt;/li&gt;&lt;/ul&gt;" style="text;html=1;align=left;verticalAlign=middle;resizable=0;points=[];autosize=1;strokeColor=none;fillColor=none;fontSize=10;" parent="1" vertex="1">
          <mxGeometry x="930" y="310" width="170" height="70" as="geometry" />
        </mxCell>
        <mxCell id="hSCmPWtxroCCkHLQFnGJ-8" value="" style="pointerEvents=1;verticalLabelPosition=bottom;shadow=0;dashed=0;align=center;html=1;verticalAlign=top;shape=mxgraph.electrical.signal_sources.signal_ground;rotation=270;" parent="1" vertex="1">
          <mxGeometry x="900" y="555" width="45" height="30" as="geometry" />
        </mxCell>
        <mxCell id="hSCmPWtxroCCkHLQFnGJ-9" value="" style="pointerEvents=1;verticalLabelPosition=bottom;shadow=0;dashed=0;align=center;html=1;verticalAlign=top;shape=mxgraph.electrical.signal_sources.signal_ground;rotation=270;" parent="1" vertex="1">
          <mxGeometry x="900" y="660" width="45" height="30" as="geometry" />
        </mxCell>
        <mxCell id="hSCmPWtxroCCkHLQFnGJ-10" value="" style="pointerEvents=1;verticalLabelPosition=bottom;shadow=0;dashed=0;align=center;html=1;verticalAlign=top;shape=mxgraph.electrical.signal_sources.signal_ground;rotation=270;" parent="1" vertex="1">
          <mxGeometry x="900" y="770" width="45" height="30" as="geometry" />
        </mxCell>
        <mxCell id="hSCmPWtxroCCkHLQFnGJ-11" value="Valve Cover Stud&lt;br style=&quot;font-size: 10px;&quot;&gt;&lt;ul style=&quot;font-size: 10px;&quot;&gt;&lt;li style=&quot;font-size: 10px;&quot;&gt;Battery (-)&lt;/li&gt;&lt;li style=&quot;font-size: 10px;&quot;&gt;&lt;span style=&quot;background-color: initial; font-size: 10px;&quot;&gt;Engine Grounding Strap&lt;/span&gt;&lt;/li&gt;&lt;/ul&gt;" style="text;html=1;align=left;verticalAlign=middle;resizable=0;points=[];autosize=1;strokeColor=none;fillColor=none;fontSize=10;" parent="1" vertex="1">
          <mxGeometry x="945" y="535" width="170" height="70" as="geometry" />
        </mxCell>
        <mxCell id="hSCmPWtxroCCkHLQFnGJ-12" value="Engine Block Stud&lt;br style=&quot;font-size: 10px;&quot;&gt;&lt;ul style=&quot;font-size: 10px;&quot;&gt;&lt;li style=&quot;font-size: 10px;&quot;&gt;Battery (-)&lt;/li&gt;&lt;li style=&quot;font-size: 10px;&quot;&gt;&lt;span style=&quot;background-color: initial; font-size: 10px;&quot;&gt;Engine Grounding Strap&lt;/span&gt;&lt;/li&gt;&lt;/ul&gt;" style="text;html=1;align=left;verticalAlign=middle;resizable=0;points=[];autosize=1;strokeColor=none;fillColor=none;fontSize=10;" parent="1" vertex="1">
          <mxGeometry x="945" y="640" width="170" height="70" as="geometry" />
        </mxCell>
        <mxCell id="hSCmPWtxroCCkHLQFnGJ-13" value="Engine Block Stud&lt;br style=&quot;font-size: 10px;&quot;&gt;&lt;ul style=&quot;font-size: 10px;&quot;&gt;&lt;li style=&quot;font-size: 10px;&quot;&gt;Battery (-)&lt;/li&gt;&lt;li style=&quot;font-size: 10px;&quot;&gt;&lt;span style=&quot;background-color: initial; font-size: 10px;&quot;&gt;Engine Grounding Strap&lt;/span&gt;&lt;/li&gt;&lt;/ul&gt;" style="text;html=1;align=left;verticalAlign=middle;resizable=0;points=[];autosize=1;strokeColor=none;fillColor=none;fontSize=10;" parent="1" vertex="1">
          <mxGeometry x="945" y="750" width="170" height="70" as="geometry" />
        </mxCell>
        <mxCell id="hSCmPWtxroCCkHLQFnGJ-14" value="V&lt;sub&gt;dd&lt;/sub&gt;" style="verticalLabelPosition=top;verticalAlign=bottom;shape=mxgraph.electrical.signal_sources.vdd;shadow=0;dashed=0;align=center;strokeWidth=1;fontSize=24;html=1;flipV=1;" parent="1" vertex="1">
          <mxGeometry x="1220" y="410" width="60" height="40" as="geometry" />
        </mxCell>
        <mxCell id="hSCmPWtxroCCkHLQFnGJ-15" style="edgeStyle=orthogonalEdgeStyle;rounded=0;orthogonalLoop=1;jettySize=auto;html=1;exitX=1;exitY=0.5;exitDx=0;exitDy=0;entryX=0.5;entryY=0;entryDx=0;entryDy=0;entryPerimeter=0;endArrow=none;endFill=0;" parent="1" source="hSCmPWtxroCCkHLQFnGJ-3" target="hSCmPWtxroCCkHLQFnGJ-14" edge="1">
          <mxGeometry relative="1" as="geometry" />
        </mxCell>
        <mxCell id="hSCmPWtxroCCkHLQFnGJ-17" value="" style="pointerEvents=1;verticalLabelPosition=bottom;shadow=0;dashed=0;align=center;html=1;verticalAlign=top;shape=mxgraph.electrical.signal_sources.signal_ground;rotation=270;" parent="1" vertex="1">
          <mxGeometry x="900" y="870" width="45" height="30" as="geometry" />
        </mxCell>
        <mxCell id="hSCmPWtxroCCkHLQFnGJ-18" value="Alternator&lt;br style=&quot;font-size: 10px;&quot;&gt;&lt;ul style=&quot;font-size: 10px;&quot;&gt;&lt;li style=&quot;font-size: 10px;&quot;&gt;Engine Block Stud&lt;/li&gt;&lt;/ul&gt;" style="text;html=1;align=left;verticalAlign=middle;resizable=0;points=[];autosize=1;strokeColor=none;fillColor=none;fontSize=10;" parent="1" vertex="1">
          <mxGeometry x="945" y="855" width="150" height="60" as="geometry" />
        </mxCell>
        <mxCell id="hSCmPWtxroCCkHLQFnGJ-19" value="" style="pointerEvents=1;verticalLabelPosition=bottom;shadow=0;dashed=0;align=center;html=1;verticalAlign=top;shape=mxgraph.electrical.signal_sources.signal_ground;rotation=-180;horizontal=1;textDirection=ltr;" parent="1" vertex="1">
          <mxGeometry x="460" y="330" width="45" height="30" as="geometry" />
        </mxCell>
        <mxCell id="hSCmPWtxroCCkHLQFnGJ-20" value="Bulkhead&lt;br style=&quot;font-size: 10px;&quot;&gt;&lt;ul style=&quot;font-size: 10px;&quot;&gt;&lt;li style=&quot;font-size: 10px;&quot;&gt;Battery (-)&lt;/li&gt;&lt;li style=&quot;font-size: 10px;&quot;&gt;&lt;span style=&quot;background-color: initial; font-size: 10px;&quot;&gt;Engine Grounding Strap&lt;/span&gt;&lt;/li&gt;&lt;/ul&gt;" style="text;html=1;align=left;verticalAlign=middle;resizable=0;points=[];autosize=1;strokeColor=none;fillColor=none;fontSize=10;" parent="1" vertex="1">
          <mxGeometry x="490" y="310" width="170" height="70" as="geometry" />
        </mxCell>
        <mxCell id="hSCmPWtxroCCkHLQFnGJ-22" style="edgeStyle=orthogonalEdgeStyle;rounded=0;orthogonalLoop=1;jettySize=auto;html=1;exitX=0;exitY=0.5;exitDx=0;exitDy=0;entryX=0.5;entryY=0;entryDx=0;entryDy=0;entryPerimeter=0;endArrow=none;endFill=0;" parent="1" source="uAP_DkmRmonAWhIrldk9-1" target="hSCmPWtxroCCkHLQFnGJ-19" edge="1">
          <mxGeometry relative="1" as="geometry" />
        </mxCell>
        <mxCell id="manIsbsgKyJ7FoLlVFXX-1" value="OS Lamp&lt;div&gt;Ground&lt;/div&gt;" style="pointerEvents=1;verticalLabelPosition=bottom;shadow=0;dashed=0;align=center;html=1;verticalAlign=top;shape=mxgraph.electrical.signal_sources.signal_ground;rotation=0;" vertex="1" parent="1">
          <mxGeometry x="590" y="1080" width="45" height="30" as="geometry" />
        </mxCell>
        <mxCell id="manIsbsgKyJ7FoLlVFXX-2" value="NS Lamp&lt;br&gt;Ground" style="pointerEvents=1;verticalLabelPosition=bottom;shadow=0;dashed=0;align=center;html=1;verticalAlign=top;shape=mxgraph.electrical.signal_sources.signal_ground;rotation=0;" vertex="1" parent="1">
          <mxGeometry x="1067.5" y="1080" width="45" height="30" as="geometry" />
        </mxCell>
      </root>
    </mxGraphModel>
  </diagram>
</mxfile>
